<?xml version="1.0" encoding="utf-8"?>
<!-- Generator: Adobe Illustrator 24.1.0, SVG Export Plug-In . SVG Version: 6.00 Build 0)  -->
<svg version="1.1" xmlns="http://www.w3.org/2000/svg" xmlns:xlink="http://www.w3.org/1999/xlink" x="0px" y="0px"
	 viewBox="0 0 700 300" style="enable-background:new 0 0 700 300;" xml:space="preserve">
<style type="text/css">
	.st0{display:none;}
	.st1{display:inline;}
	.st2{fill:#251632;}
	.st3{fill:#FDFDFD;}
	.st4{fill:#F47A3E;}
	.st5{fill:#E0302C;}
	.st6{fill:#F1BFBA;}
	.st7{fill:#430B14;}
	.st8{fill:#2C4ADD;}
	.st9{fill:#899DE5;}
	.st10{fill:#A7B5E8;}
</style>
<g id="Layer_1" class="st0">
</g>
<g id="Layer_2">
</g>
<g id="Layer_3">
	<g>
		<g>
			<path class="st8" d="M198.74,52.37l-85.57,21.56c0,0-10.97,1.46-12.8,14.82c-2.36,17.18,10.11,19.54,10.11,19.54l83.54,22.91
				L198.74,52.37"/>
			<path class="st9" d="M104.41,186.45l85.57-21.56c0,0,10.97-1.46,12.8-14.82c2.36-17.18-10.11-19.54-10.11-19.54l-83.54-22.91
				L104.41,186.45"/>
			<path class="st8" d="M198.74,162.19l-85.57,21.56c0,0-10.97,1.46-12.8,14.82c-2.36,17.18,10.11,19.54,10.11,19.54l83.54,22.91
				L198.74,162.19"/>
			<circle class="st10" cx="198.4" cy="91.79" r="39.75"/>
			<circle class="st8" cx="104.75" cy="147.03" r="39.75"/>
			<circle class="st10" cx="198.4" cy="201.61" r="39.75"/>
		</g>
		<g>
			<path d="M315.55,163.82c-2.21,2.08-7.4,5.84-11.95,5.19c-5.45-0.65-8.31-7.66-8.05-14.29c0.26-5.71,4.03-17.14,4.81-19.48
				c0.65-2.34,1.04-5.45-1.82-5.06c-3.51,0.39-9.61,7.4-14.29,15.71c-4.93,8.7-7.4,18.31-7.79,19.61c-0.52,1.17-1.17,1.69-2.34,1.95
				c-1.3,0.26-4.68,0.65-5.71,0.52c-0.91-0.13-2.6-0.78-2.08-2.99c0.52-2.21,1.69-9.87,2.73-16.49c0.91-6.62,3.64-17.79,0.78-17.79
				c-2.99,0-9.09,6.88-13.25,14.54c-4.29,7.79-7.79,18.44-8.57,21.04c-0.39,1.69-2.86,1.69-4.94,1.82c-2.08,0-5.19,0.39-5.19-1.95
				c0-2.34,0.52-11.3,2.08-20.65c1.43-8.44,3.64-17.27,5.06-18.18c1.17-0.78,3.38-0.78,4.68-0.78c1.04,0.13,3.64,1.04,3.38,2.47
				c-0.26,1.43-3.51,18.96-3.77,20.52c-0.13,0.65,0,1.04,0.13,1.04c0.26,0.13,0.78-0.39,1.17-1.3c0.78-1.43,4.42-8.57,7.01-12.08
				c2.6-3.64,9.61-11.95,16.1-10.65c6.75,1.56,5.84,8.31,5.71,11.43c-0.13,3.25-0.52,8.57-0.52,9.74c0,0.52,0.13,0.78,0.39,0.65
				c0.13,0,0.52-0.26,0.78-0.91c0.52-1.04,3.77-7.66,6.62-11.56s9.22-11.43,15.71-9.61c6.62,1.82,7.14,8.31,6.88,11.69
				c-0.26,3.51-2.08,12.21-2.99,16.75c-0.91,4.81-2.99,9.35-0.39,10.13c2.6,0.91,8.05-4.16,10-6.75c1.95-2.6,3.51-5.06,4.16-6.36
				c0.26-0.52,1.17-0.91,1.82-0.65s1.17,1.17,0.26,3.25C320.49,158.23,317.76,161.74,315.55,163.82z"/>
			<path d="M365.16,165.51c-3.64,1.82-8.44,2.73-12.73,2.73c-2.34,0-4.42-0.26-6.23-0.78c-1.43,0.78-4.81,1.3-6.23,1.3
				c-13.12,0.52-20.26-8.44-20.26-17.79c0.13-14.16,12.73-24.8,25.06-25.06c14.03-0.26,18.96,9.09,18.83,17.4
				c-0.13,7.4-4.81,15.58-11.56,20.65c3.64,0.91,8.44,0.39,12.21-1.95c4.93-2.86,7.66-7.4,8.83-9.61c0.52-1.04,1.82-1.43,2.6-1.17
				c0.78,0.39,1.17,1.3,0.39,2.73C374.51,157.07,371,162.39,365.16,165.51z M353.73,142.65c0-8.96-4.16-12.99-9.22-13.25
				c-5.84-0.13-11.95,4.94-13.38,17.79c-0.26,2.08-0.39,3.9-0.39,5.58c0,8.96,3.12,12.6,8.31,12.47c5.32,0,12.34-4.68,14.29-17.4
				C353.6,146.03,353.73,144.21,353.73,142.65z"/>
			<path d="M393.08,163.95c-3.25,3.12-8.31,5.45-13.64,4.55c-5.58-1.04-7.92-6.49-7.92-14.55c0-4.93,0.91-10.91,2.34-17.4
				c0.91-4.16,2.08-8.83,3.12-13.51h-3.77c-1.17,0-2.21-0.91-2.21-2.21c0-1.17,1.04-2.08,2.21-2.08h4.93
				c1.95-7.79,3.77-14.29,4.55-15.84c1.43-2.6,2.86-3.25,4.67-3.12c1.69,0.26,3.77,1.95,2.86,5.06c-0.52,1.82-1.82,7.14-3.25,13.9
				h6.62c1.17,0,2.21,0.91,2.21,2.08c0,1.3-1.04,2.21-2.21,2.21h-7.53c-0.91,4.16-1.69,8.57-2.6,12.86
				c-1.56,8.7-3.38,17.4-3.38,22.99c0,3.25,0.65,5.32,2.21,5.84c3.77,1.04,8.44-2.6,10.39-4.68c2.08-2.47,4.16-5.84,4.94-7.27
				c0.26-0.65,1.3-0.91,1.95-0.52c0.52,0.39,0.78,1.17,0.26,2.47C398.66,157.59,396.33,160.96,393.08,163.95z"/>
			<path d="M416.58,163.95c-2.21,1.95-6.62,5.06-11.95,4.42c-4.81-0.78-8.57-6.49-8.57-14.94c0-2.21,0.26-4.42,0.78-6.88
				c1.95-8.96,4.03-16.49,5.71-18.31c1.69-1.95,2.99-2.08,4.42-1.95c1.56,0.13,3.25,0.78,3.77,2.08c1.04,2.21-2.08,11.3-3.25,17.92
				c-0.78,4.29-1.95,9.87-1.95,13.64c0,2.08,0.39,3.77,1.3,4.16c2.6,1.3,6.88-1.56,9.48-4.55c2.47-2.73,4.16-5.71,5.07-7.66
				c0.39-1.04,1.3-1.3,1.95-0.91c0.52,0.26,0.91,1.3,0.39,2.6C422.56,156.68,419.44,161.35,416.58,163.95z M408.79,112.39
				c-3.12-0.78-4.93-4.16-4.03-7.66c0.78-3.51,4.03-5.71,7.01-4.94c3.12,0.65,4.93,4.16,4.16,7.66
				C415.03,110.96,411.91,113.17,408.79,112.39z"/>
			<path d="M465.8,165.51c-3.64,1.82-8.44,2.73-12.73,2.73c-2.34,0-4.42-0.26-6.23-0.78c-1.43,0.78-4.81,1.3-6.23,1.3
				c-13.12,0.52-20.26-8.44-20.26-17.79c0.13-14.16,12.73-24.8,25.06-25.06c14.03-0.26,18.96,9.09,18.83,17.4
				c-0.13,7.4-4.81,15.58-11.56,20.65c3.64,0.91,8.44,0.39,12.21-1.95c4.93-2.86,7.66-7.4,8.83-9.61c0.52-1.04,1.82-1.43,2.6-1.17
				c0.78,0.39,1.17,1.3,0.39,2.73C475.15,157.07,471.65,162.39,465.8,165.51z M454.37,142.65c0-8.96-4.16-12.99-9.22-13.25
				c-5.84-0.13-11.95,4.94-13.38,17.79c-0.26,2.08-0.39,3.9-0.39,5.58c0,8.96,3.12,12.6,8.31,12.47c5.32,0,12.34-4.68,14.29-17.4
				C454.24,146.03,454.37,144.21,454.37,142.65z"/>
			<path d="M519.83,163.82c-2.6,2.47-7.14,6.1-11.82,4.94c-5.46-1.17-8.96-7.01-7.79-13.25c1.17-6.36,4.16-17.53,4.55-19.22
				c0.39-1.82,1.17-4.81-0.91-5.45s-8.44,4.03-13.38,12.6c-4.81,8.44-9.22,20.78-9.74,22.6c-0.52,1.69-2.86,2.08-4.94,2.08
				c-2.21,0-5.06,0.39-4.93-2.08c0.26-2.34,0.65-11.95,1.95-20.78c1.3-8.57,3.25-15.97,4.54-17.27c1.3-1.3,3.12-0.91,4.81-0.91
				c1.69,0.13,4.16,0.91,3.64,2.86c-0.39,1.82-4.16,18.18-4.54,20c-0.26,1.04,0.13,1.69,0.52,1.69c0.39,0.13,1.04-0.26,1.43-1.04
				c1.04-1.69,3.64-7.92,7.79-13.64c3.9-5.58,9.48-11.69,15.45-10.26c5.58,1.56,7.14,7.14,7.14,10.39c0,4.16-2.73,16.36-3.38,20.52
				c-0.26,1.69-1.3,6.75,0.39,7.27c2.21,0.52,5.33-1.69,8.05-4.81c2.6-2.99,4.42-5.71,5.58-8.18c0.39-1.17,1.69-1.43,2.34-0.91
				c0.52,0.39,0.78,1.17,0.26,2.6C525.67,156.68,522.29,161.35,519.83,163.82z"/>
			<path d="M543.46,165.51c0.91,3.77,1.69,8.44,1.82,14.16c0.78,21.3-5.45,31.43-12.99,31.17c-7.66-0.13-11.3-7.01-11.3-24.28
				c0-7.27,0.65-16.49,1.95-27.79c-1.95-1.95-3.12-4.03-2.73-6.49c0.39-3.12,2.21-4.42,4.16-4.94v-0.13
				c5.97-43.64,15.06-63.77,27.01-60.78c4.67,1.17,6.36,5.45,6.36,10.65c0,7.66-3.64,17.53-5.97,22.34
				c-5.84,12.08-13.51,21.69-17.53,25.84c-0.39,3.12-0.26,1.43-0.65,5.19c3.25,1.95,6.62,5.32,8.96,11.95
				c5.45-0.78,10.65-3.51,13.51-8.44c0.78-1.56,1.82-1.95,2.34-1.69c0.65,0.39,0.91,1.69,0,3.38
				C555.15,162.39,548,165.12,543.46,165.51z M539.43,165.9c-2.73,0.13-5.32-0.39-7.53-1.3c-1.82,15.32-2.86,25.84-2.86,32.6
				c0,7.27,1.3,10.39,4.16,10.39c5.19,0,8.31-12.73,8.31-24.03C541.51,177.85,540.99,171.48,539.43,165.9z M533.07,154.6
				c-0.26,2.08-0.39,4.03-0.65,5.97c1.43,1.04,3.51,1.82,5.97,1.95C537.09,159.4,535.41,156.68,533.07,154.6z M535.15,137.72
				c3.25-2.86,8.44-8.57,13.38-19.74c3.64-7.79,5.32-15.71,5.32-21.17c0-4.16-1.04-7.01-3.12-7.14
				C544.63,89.02,539.95,100.7,535.15,137.72z"/>
			<path d="M604.88,155.12c-1.56,3.51-7.92,10.26-16.23,14.93c-0.26,1.17-0.39,2.47-0.65,3.51c-2.73,17.4-6.49,26.75-10.91,32.99
				c-3.38,4.67-8.83,8.44-13.9,8.44c-1.69,0-3.25-0.39-4.8-1.3c-3.25-1.95-4.68-5.58-4.68-9.87c0-4.16,1.3-8.83,4.03-13.38
				c4.54-7.53,12.86-14.29,21.43-19.09c1.43-8.31,2.47-15.06,2.6-15.84s0-1.04-0.13-1.17c-0.26-0.13-0.52,0.26-0.78,0.78
				c-1.04,1.82-9.22,14.93-18.57,13.51c-6.36-1.04-8.57-7.01-8.57-14.03c0-3.12,0.52-6.49,1.17-9.74
				c1.82-8.57,4.67-16.88,5.97-17.66c1.17-0.91,1.95-1.04,3.77-1.04s4.42,1.43,4.03,3.12c-0.39,1.56-3.25,13.25-4.16,17.79
				c-0.65,3.12-2.08,9.22-2.08,13.38c0,2.21,0.39,3.77,1.43,4.16c2.99,1.3,8.83-1.43,14.29-10.65c5.58-9.09,7.66-23.38,7.66-24.54
				c0-1.3,1.82-2.6,4.55-2.47c2.73,0.13,5.45,0.26,5.06,2.73c-0.26,2.08-3.77,21.43-6.1,36.36c6.62-4.03,10.91-9.09,12.99-12.86
				c1.17-2.21,2.34-2.34,2.86-1.56C605.53,152.26,605.53,153.56,604.88,155.12z M561.12,193.43c-2.08,4.55-3.12,8.57-3.12,11.69
				s1.04,5.19,2.73,5.97c4.03,1.69,10.78-1.43,14.03-16.36c1.3-5.71,2.6-12.73,3.77-19.22
				C570.99,180.05,564.37,186.29,561.12,193.43z"/>
		</g>
	</g>
</g>
</svg>
