<?xml version="1.0" encoding="utf-8"?>
<!-- Generator: Adobe Illustrator 24.1.0, SVG Export Plug-In . SVG Version: 6.00 Build 0)  -->
<svg version="1.1" xmlns="http://www.w3.org/2000/svg" xmlns:xlink="http://www.w3.org/1999/xlink" x="0px" y="0px"
	 viewBox="0 0 301 300" style="enable-background:new 0 0 301 300;" xml:space="preserve">
<style type="text/css">
	.st0{display:none;}
	.st1{display:inline;}
	.st2{fill:#251632;}
	.st3{fill:#FDFDFD;}
	.st4{fill:#F47A3E;}
	.st5{fill:#E0302C;}
	.st6{fill:#F1BFBA;}
	.st7{fill:#430B14;}
	.st8{fill:#2C4ADD;}
	.st9{fill:#899DE5;}
	.st10{fill:#A7B5E8;}
</style>
<g id="Layer_1" class="st0">
	<g class="st1">
		<path class="st2" d="M534.16,432c-135.02,0-270.05,0-405.07,0c0-133.11,0-266.22,0-399.33c132.23,0,264.46,0.06,396.69-0.16
			c6.87-0.01,8.56,1.67,8.54,8.55C534.1,171.37,534.16,301.69,534.16,432z M439.89,119.45c-0.52-0.52-1.04-1.04-1.56-1.56
			c0,0,0.06,0.06,0.06,0.06c-0.55-0.52-1.11-1.05-1.66-1.57c0,0,0.14,0.14,0.14,0.14c-0.57-0.53-1.14-1.05-1.72-1.58
			c0,0,0.13,0.16,0.13,0.16c-0.59-0.48-1.19-0.95-1.78-1.43l0.09,0.11c-0.27-1.7-1.42-2.01-2.88-1.83l-0.02,0.04
			c0.05-3.41-2.12-3.43-4.58-2.99c0,0,0.07,0.07,0.07,0.06c-9.25-14.58-43.65-7.63-57.69-3.7c-28.5,7.44-57.2,14.13-85.6,21.92
			c-7.55,2.07-16.99,1.76-21.41,10.68l0.1,0.05c-4.52-0.7-5.05,2.17-4.99,5.57l0.01-0.01c-10.68,7.25-10.81,37.65,4.25,39.37
			c1.21,1.51,2.42,3.02,3.63,4.53c-81.32-5.24-87.78,115.72-4.86,117.26c-17.51,21.58-13.22,49.41,12.96,56.98
			c38.05,9.7,76.13,19.34,114.1,29.34c9.44,2.49,18.76,1.84,27.58-0.73c5.99-1.75,13.62-2.68,16.5-10.22l-0.02,0.04
			c2.48,0.29,4.65,0.16,4.37-3.26l0.04,0.02c1.51,0.2,2.77,0.09,2.37-1.99l0.24-0.12c1.93,0.43,2.13-0.8,2.11-2.22
			c0,0-0.03,0.06-0.03,0.06c0.54-0.53,1.08-1.06,1.62-1.6c0,0-0.1,0.09-0.1,0.09c0.53-0.56,1.06-1.12,1.59-1.69l-0.16,0.06
			c2.63,0.35,4.23-1.22,5.58-3.1c12.11-16.82,13.51-35.32,8.41-54.77c-0.67-2.54-1.14-5.73-5.14-5.1c0.47-1.49,0.26-2.78-1.46-3.24
			l0.18-0.37l-0.15,0.38c-0.48-9.26-7.14-17.32-15.03-18.19l-0.02,0.01c-0.27-6.09-4.21-6.76-9.03-6.14l0.11,0.09
			c-0.57-1.52-1.71-1.85-3.17-1.55l0.11,0.07c-0.71-1.64-2.04-1.84-3.58-1.56c-1.73-2.57-4.79-0.89-6.93-2.17
			c-0.31-2.14-1.86-2.45-3.67-2.82c-4.51-0.93-8.97-2.12-13.45-3.21c14.55-19.13,12.11-35.49-7.16-47.99
			c11.78-0.16,23.55-0.42,34.61-5.28c1.47,0.26,2.66-0.08,3.29-1.58l-0.16,0.09c4.8,0.54,8.81-0.07,8.98-6.23l0,0.14
			c0.58-0.52,1.16-1.04,1.75-1.56l-0.11,0.05c5.54,0.43,8.11-2.06,7.51-7.65l-0.04,0c5.99-0.49,6.29-4.66,5.97-9.27
			c10.75,0.85,8.58-36.87,7.4-43.98c-0.95-8.69-5.54-15.93-13.54-20.42c0,0,0.22,0.06,0.22,0.06c-0.5-0.58-0.99-1.16-1.49-1.74
			c0,0,0.11,0.1,0.11,0.1c-0.54-0.54-1.08-1.08-1.62-1.62c0,0,0.1,0.1,0.1,0.1c-0.51-0.54-1.03-1.08-1.54-1.62
			C439.86,119.43,439.89,119.45,439.89,119.45z"/>
		<path class="st3" d="M534.16,432c0-130.31-0.06-260.63,0.16-390.94c0.01-6.88-1.67-8.56-8.54-8.55
			c-132.23,0.22-264.46,0.16-396.69,0.16c130.55-4.37,269.47,0.01,402.8-1.67c5.38,0,3.75,3.01,3.76,5.47
			c0,130.33,0.16,260.65-0.06,390.98C535.58,428.89,537.42,431.4,534.16,432z"/>
		<path class="st3" d="M259.63,304.72c-75.52,0.47-79.83-110.22-6.47-117.04c3.75-0.35,7.55-0.16,11.32-0.23
			c8.95,2.66,18.25,4.41,27.01,7.61l-0.01-0.01c-0.33,2.61,1.84,3.25,3.39,4.47c23.95,18.91,29.19,53.49,12.41,78.9
			c-5.44,8.24-13.28,13.65-20.42,19.96c-6.84,5.9-15.98,3.23-23.57,6.33C262.07,304.72,260.85,304.72,259.63,304.72z"/>
		<path class="st5" d="M365.67,110.2c-1.98,4.91-6.77,7.19-10.18,10.75c-25.34,26.43-19.46,71.1,11.98,89.56
			c1.71,1.01,3.76,1.65,4.22,3.99c-26.89-5.9-53.13-14.45-80.21-19.44c0,0,0.01,0.01,0.01,0.01c-0.26-0.94-0.86-1.14-1.71-0.79
			c-8.43-2.27-16.87-4.55-25.3-6.82c-12.28-12.72-16.57-27.95-7.88-43.9c0,0-0.01,0.01-0.01,0.01c2.14-1.43,4.29-2.85,4.99-5.57
			c0,0-0.1-0.05-0.11-0.05c25.47-10.2,52.88-15.25,79.33-22.48C349.02,113.51,356.9,109.61,365.67,110.2z"/>
		<path class="st6" d="M291.48,195.06c16.42,2.36,32.08,7.9,48.17,11.63c16.4,3.87,32.83,7.64,48.78,13.14
			c21.89,12.31,21.86,39.24,0.08,52.62c-6.08,2.18-13.09,1.72-18.29,6.42c-8.48-0.52-16.16,3.01-24.16,4.86
			c-19.8,4.59-39.19,10.86-59.18,14.66c35.35-23.28,41.84-71.07,8.01-98.86C293.32,198.31,291.15,197.67,291.48,195.06z"/>
		<path class="st7" d="M365.67,110.2c-8.77-0.59-16.66,3.3-24.88,5.26c-26.45,7.24-53.86,12.28-79.33,22.48
			c4.43-8.91,13.87-8.6,21.41-10.67c28.4-7.79,57.1-14.48,85.6-21.92c14.13-3.94,48.35-10.9,57.69,3.7
			C405.82,99.57,385.68,101.24,365.67,110.2z"/>
		<path class="st7" d="M256.6,143.56c-7.04,14.04-6.35,27.24,4.25,39.37C245.79,181.2,245.92,150.82,256.6,143.56z"/>
		<path class="st7" d="M261.58,138c-0.71,2.72-2.85,4.14-4.99,5.57C256.53,140.17,257.06,137.3,261.58,138z"/>
		<path class="st5" d="M364.19,381.66c-16-2.3-31.28-7.59-46.93-11.32c-14.23-3.39-28.34-7.26-42.49-11
			c-22.63-5.98-30.35-30.37-15.28-48.21c1.64-1.94,3.36-3.78,3.8-6.41c7.6-3.1,16.73-0.44,23.57-6.33
			c20-3.79,39.39-10.07,59.18-14.66c8-1.86,15.68-5.38,24.16-4.86c-32.44,19.11-41.08,64.03-14.79,92.17
			C358.4,374.5,363.32,376.45,364.19,381.66z"/>
		<path class="st6" d="M289.78,194.28c0.85-0.35,1.45-0.15,1.71,0.79C290.92,194.81,290.35,194.54,289.78,194.28z"/>
	</g>
</g>
<g id="Layer_2">
	<g>
		<path class="st8" d="M195.62,33.44L93.5,59.17c0,0-13.09,1.74-15.28,17.69c-2.81,20.51,12.06,23.32,12.06,23.32l99.71,27.34
			L195.62,33.44"/>
		<path class="st9" d="M83.04,193.46l102.13-25.73c0,0,13.09-1.74,15.28-17.69c2.81-20.51-12.06-23.32-12.06-23.32L88.67,99.38
			L83.04,193.46"/>
		<path class="st8" d="M195.62,164.51L93.5,190.25c0,0-13.09,1.74-15.28,17.69c-2.81,20.51,12.06,23.32,12.06,23.32l99.71,27.34
			L195.62,164.51"/>
		<circle class="st10" cx="195.22" cy="80.48" r="47.44"/>
		<circle class="st8" cx="83.44" cy="146.42" r="47.44"/>
		<circle class="st10" cx="195.22" cy="211.56" r="47.44"/>
	</g>
</g>
<g id="Layer_3">
</g>
</svg>
